<svg width="701.34" height="256" version="1.1" viewBox="0 0 701.34 256" xmlns="http://www.w3.org/2000/svg">
 <title>Logo FreshRSS</title>
 <g stroke-width="24">
  <g fill="#442fac" aria-label="Flus">
   <path d="m313.5 205.76h27.947v-61.653h64v-24.107h-64v-38.187h71.04v-24.107h-98.987z"/>
   <path d="m464.12 207.25c6.8267 0 14.293-1.28 19.84-3.84l-5.5467-18.133c-2.3467 0.85333-4.6933 1.28-6.6133 1.28-6.4 0-9.8133-4.2667-9.8133-11.52v-126.93h-26.88v130.35c0 17.92 10.88 28.8 29.013 28.8z"/>
   <path d="m534.52 207.47c12.16 0 23.68-4.6933 32.427-13.013l4.9067 11.307h19.413v-103.68h-27.307v74.453c-5.76 4.6933-12.373 7.2533-19.413 7.2533-14.72 0-19.2-11.307-19.2-21.547v-60.16h-27.093v66.133c0 23.893 14.72 39.253 36.267 39.253z"/>
   <path d="m656.12 207.89c28.373 0 45.227-12.587 45.227-33.28 0-38.827-58.667-25.813-58.667-43.307 0-6.1867 7.4667-10.027 20.053-10.027 8.5333 0 18.773 1.7067 28.373 4.48l5.76-20.48c-9.6-3.4133-21.76-5.3333-33.493-5.3333-29.653 0-46.933 11.947-46.933 33.28 0 38.613 57.813 23.893 57.813 42.667 0 6.6133-7.04 10.667-18.56 10.667-10.027 0-23.893-2.7733-34.773-7.04l-5.9733 20.267c11.733 5.12 26.88 8.1066 41.173 8.1066z"/>
  </g>
  <circle cx="128" cy="128" r="33" fill="#442fac"/>
  <g fill="none" stroke="#442fac" stroke-width="24">
   <g stroke-opacity=".3">
    <path d="m12 128a116 116 0 1 1 116 116"/>
    <path d="m54 128a74 74 0 1 1 74 74"/>
   </g>
   <path d="m128 12a116 116 0 0 1 116 116"/>
   <path d="m128 54a74 74 0 0 1 74 74"/>
  </g>
 </g>
</svg>
